<?xml version="1.0" encoding="utf-8"?>
<!-- Generator: Adobe Illustrator 24.3.0, SVG Export Plug-In . SVG Version: 6.00 Build 0)  -->
<svg version="1.1" id="レイヤー_1" xmlns="http://www.w3.org/2000/svg" xmlns:xlink="http://www.w3.org/1999/xlink" x="0px"
	 y="0px" viewBox="0 0 1125 2436" style="enable-background:new 0 0 1125 2436;" xml:space="preserve">
<style type="text/css">
	.st0{fill:#FFFFFF;stroke:#000000;stroke-width:2;stroke-miterlimit:10;}
</style>
<path class="st0" d="M879,1272.22c0-3.27-2.6-5.93-5.82-5.93H451.82c-3.21,0-2.82-2.65-2.82-5.93v-76.96
	c0-7.96-6.33-14.41-14.14-14.41H260.14c-7.81,0-14.14,6.45-14.14,14.41v337.58h633V1272.22z"/>
<path class="st0" d="M879,1520.99H246v116.91v129.25c0,5.72,4.36,10.36,9.73,10.36h613.53c5.38,0,9.73-4.64,9.73-10.36V1520.99z"/>
<line class="st0" x1="879" y1="1645" x2="246" y2="1645"/>
<line class="st0" x1="246" y1="1389.21" x2="879" y2="1389.21"/>
<line class="st0" x1="451.82" y1="1266.29" x2="246" y2="1266.29"/>
</svg>
