<?xml version="1.0"?><svg width="339.693" height="382.974" xmlns="http://www.w3.org/2000/svg">
 <title>Green leaves swirl</title>

 <metadata id="metadata7">image/svg+xml</metadata>
 <g>
  <title>Layer 1</title>
  <g id="layer1">
   <g id="g2422">
    <path d="m113.172989,305.648987c-5.077988,-2.640991 -10.207993,-4.947021 -14.913986,-8.333008c-10.057007,-7.705963 -18.565002,-16.622955 -25.949005,-26.89801c-8.473022,-11.732971 -11.070984,-25.170944 -11.315002,-39.317978c1.427002,-14.806 9.026001,-26.431 19.117004,-36.821991c12.297989,-10.630035 26.76799,-18.044037 42.584,-21.563995c17.509995,-3.315033 34.810989,-0.540039 51.713989,4.226959c15.621017,5.003021 28.552994,14.250977 38.521011,27.124023c9.231995,14.171997 6.76001,28.649994 0.916992,43.476044c-9.062988,17.610977 -22.656006,32.241928 -35.162994,47.40593c-13.735001,15.31604 -24.492996,32.687012 -33.417007,51.128052c-3.054001,11.606995 -9.776993,24.222992 -8.121994,36.042969c0.139999,1 -1.278,1.197021 -1.414993,0.196014l0,0c-2.022003,-14.672028 -6.130005,-25.501007 3.08699,-39.514984c9.785995,-18.42804 22.734009,-34.793976 34.457001,-51.999023c10.872009,-15.281006 22.190002,-30.487 30.410004,-47.405014c4.799988,-11.294983 6.876984,-22.388977 1.282013,-33.912994c-7.424011,-12.871002 -18.485016,-21.391022 -32.374008,-26.71698c-15.756012,-5.42804 -32.136002,-7.564026 -48.702011,-4.687012c-15.166992,3.382996 -29.668991,7.33902 -40.667999,19.149017c-8.895996,9.634979 -15.779999,20.580017 -16.774994,33.999023c-0.888,13.134949 2.606995,25.209946 9.890991,36.23497c7.157013,9.531982 15.682007,18.161987 25.42601,25.062012c4.024994,2.995972 7.934998,7.368958 12.914001,8.440033c3.403,0.730957 1.582001,6.291992 -1.506012,4.685944z" fill="#3f7f00" id="path2318"/>
    <path d="m257.22699,34.416992c4.972992,-2.520996 10.335999,-3.692017 15.76001,-4.791016c11.285004,-1.807983 22.673004,-1.259003 33.88501,0.647003c10.961975,3.01001 18.968994,10.196991 26.357971,18.423019c6.508026,8.881989 8.394012,17.809998 4.310028,28.067017c-5.431,11.006958 -16.413025,17.080994 -26.374023,23.44696c-12.289978,7.348999 -24.938995,14.049988 -37.481995,20.945007c-14.445007,7.148987 -27.381989,16.518005 -39.960999,26.481995c-14.42099,11.945007 -26.036987,26.557983 -35.906982,42.365997c-9.792023,14.86203 -14.709015,31.666016 -17.641022,49.020996c-2.783997,13.042969 -0.153,25.414993 4.351013,37.659012c0.348999,0.948029 -0.993011,1.440979 -1.341003,0.492981l0,0c-4.563004,-12.450989 -6.791,-25.318008 -6.389999,-38.637985c2.166,-18.130005 8.556992,-34.789978 18.356003,-50.238007c10.388,-15.880005 21.283997,-31.567993 35.654999,-44.170013c12.319,-10.734985 25.598999,-20.366943 39.678986,-28.675964c12.227997,-6.997986 24.641998,-13.788025 36.117004,-21.989014c7.980011,-5.723999 15.871002,-11.775024 20.627014,-20.596985c2.261993,-6.585022 2.891998,-12.872986 -0.837006,-19.171021c-4.713989,-8.416992 -12.321014,-14.169998 -21.166016,-17.900986c-10.142975,-4.541992 -20.688995,-6.050995 -31.651001,-3.519012c-5.106995,1.238007 -10.231995,2.686005 -14.942993,5.063995c-2.048004,1.034027 -3.450989,-1.886993 -1.404999,-2.923981z" fill="#3f7f00" id="path2324"/>
    <path d="m227.746002,189.703018c1.66098,-2.41806 4.789978,-3.422058 7.427002,-4.619019c7.371002,-3.456024 13.661987,-8.561035 19.539001,-14.109009c8.009979,-7.793976 13.854004,-17.13501 19.10199,-26.898987c4.393005,-9.653015 6.237,-20.26001 5.915985,-30.817993c-1.163971,-7.237 -2.570984,-14.545044 -9.194977,-18.434998c-0.871002,-0.512024 -0.143005,-1.746002 0.725983,-1.230042l0,0c8.56601,5.079041 16.641022,8.228027 15.792023,19.966003c-1.164001,11.39801 -5.922028,21.47998 -10.979004,31.651001c-4.831024,10.307983 -11.078003,19.876007 -18.762024,28.307007c-5.685974,6.281982 -11.645996,12.294983 -18.116974,17.776001c-2.087006,1.804016 -4.522003,4.251984 -7.206024,4.518005c-5.233978,0.52002 -7.220978,-1.77301 -4.242981,-6.107971z" fill="#3f7f00" id="path2326"/>
    <path d="m153.684998,318.083008c0.880997,-3.320007 4.056,-5.701019 6.278992,-8.368011c5.548004,-7.37204 8.772003,-15.71402 11.423004,-24.462982c1.919998,-10.176025 1.762009,-20.39502 -1.136002,-30.327042c-2.360992,-8.289948 -7.01799,-15.609985 -13.25,-21.501984c-6.660995,-6.011963 -14.57399,-6.776978 -23.125992,-5.737976c-5.893997,0.903015 -10.803009,3.485931 -15.804001,6.532928c-0.863007,0.525024 -1.606003,-0.695953 -0.742996,-1.220917l0,0c5.138992,-3.123047 10.133987,-6.569031 15.752991,-8.800079c10.443008,-3.399933 20.645004,-4.148956 29.912003,2.842072c7.757996,7.240936 12.759003,15.937012 14.815994,26.451965c1.152008,11.103012 0.473999,22.046982 -3.526993,32.599014c-2.507996,9.076996 -5.453003,18.256989 -9.966995,26.53598c-1.762009,3.272034 -3.401001,7.325989 -6.915009,8.652039c-3.240997,1.223999 -4.602997,0.153992 -3.714996,-3.195007z" fill="#3f7f00" id="path2372"/>
    <path d="m199.608002,257.929993c2.466003,-2.000961 3.959991,-4.804977 5.595001,-7.470016c4.22998,-7.087952 9.269989,-13.621948 14.458984,-20.021973c7.447021,-9.286011 15.743011,-17.807983 24.289001,-26.072998c8.597992,-6.802979 15.251007,-14.994995 21.832001,-23.626038c6.024017,-9.34198 13.468018,-13.336975 24.147003,-9.553955c5.552002,2.825989 7.421997,8.099945 10.200012,13.250977c0.746002,0.600006 1.492004,1.200989 2.238983,1.800995c0.787018,0.633026 0.847015,0.876984 0,1.428009l0,0c-0.923004,0.601013 -1.845978,1.201996 -2.768982,1.802948c-5.538025,3.340057 -12.032013,3.103027 -17.811005,0.091034c-1.886017,-4.289001 -6.688019,-2.976013 -10.996002,-2.149017c-10.333008,3.811066 -18.371002,9.85202 -25.848999,17.982025c-8.505005,8.223999 -16.761017,16.705017 -24.173004,25.946045c-5.149994,6.350952 -10.152008,12.833984 -14.350006,19.867981c-1.609985,2.625977 -3.52298,5.17598 -4.30899,8.18895c-0.516998,1.985077 -4.097015,-0.172974 -2.503998,-1.464966z" fill="#3f7f00" id="path2374"/>
    <path d="m121.146988,178.605972c-2.375992,-0.205994 -4.770996,-0.494995 -7.168991,-0.662964c-7.419998,0.070984 -14.649994,2.274994 -21.673996,4.473999c-13.997009,5.703003 -26.403,14.376984 -38.455002,23.348999c-16.384003,12.583984 -30.689209,27.552002 -41.557617,45.120972c-8.047668,12.465012 -0.471985,26.270981 -3.452881,38.905991c1.127686,1.664001 2.25531,3.329041 3.382996,4.993042c0.566498,0.836975 -0.621002,1.638 -1.184296,0.79895l0,0c-1.169495,-1.73999 -2.338898,-3.480957 -3.508301,-5.221985c-14.068512,-10.779968 -5.741608,-28.28302 3.278503,-40.431992c11.58548,-17.284973 25.512604,-32.739044 42.188599,-45.310974c12.155975,-9.046997 24.67099,-17.789001 38.789993,-23.535034c7.041,-3.287964 14.227997,-6.135986 21.891998,-7.606018c2.660004,-0.43399 5.488007,-0.889954 8.076996,-0.079987c3.53801,1.107025 3.085007,5.527039 -0.608002,5.207001z" fill="#3f7f00" id="path2380"/>
    <path d="m184.588989,305.326965c2.472992,-2.672974 5.071991,-5.263 7.809998,-7.679993c7.481995,-6.092957 13.931,-13.140961 20.619019,-20.073975c6.848999,-8.983978 15.606995,-16.382019 23.862,-24.064041c10.330994,-8.929962 19.510986,-11.265015 32.761993,-8.407928c1.868988,-1.40506 3.738007,-2.809021 5.606995,-4.21405c0.808014,-0.605957 1.666016,0.536011 0.858002,1.142975l0,0c-1.891998,1.420044 -3.783997,2.841034 -5.675995,4.262054c-3.178009,13.648972 -9.669006,20.417953 -22.772003,25.323959c-10.401001,3.380005 -20.352997,7.728027 -30.639008,11.39502c-8.548004,4.265045 -16.942993,8.653015 -23.613983,15.650024c-2.312012,2.587952 -4.580017,5.113953 -5.693024,8.459961c-0.803986,2.416992 -4.853973,0.075989 -3.123993,-1.794006z" fill="#3f7f00" id="path2394"/>
    <path d="m320.089996,42.453979c-2.166992,-1.164001 -4.28299,-2.494995 -6.464996,-3.671997c-4.994019,-3.492004 -10.471008,-6.220001 -15.983002,-8.783997c-5.45401,-2.765015 -11.194,-4.937988 -16.404999,-8.161011c-4.402008,-2.582977 -7.330017,-6.066986 -8.532013,-11.001984c0.813019,-7.464996 9.399994,-8.207001 15.377014,-9.304016c8.074982,-1.843994 16.320984,-1.687988 24.526001,-1.242981c5.720001,0.257996 10.957001,1.421997 15.248993,5.339996c4.26001,5.855988 -1.066986,9.515991 -6.493011,10.727997c-0.962982,0.382996 -1.925995,0.765991 -2.888,1.149994c-0.938995,0.373016 -1.465973,-0.958008 -0.526978,-1.328003l0,0c0.914978,-0.362 1.830994,-0.722992 2.746002,-1.083984c1.852997,-1.944 3.471985,-3.597015 3.417999,-6.299011c-2.831024,-3.890991 -6.852997,-5.876007 -11.681,-6.752991c-7.981018,-1.187012 -16.096008,-0.723999 -24,0.873993c-4.449005,1.459991 -8.995026,2.812012 -11.127014,7.266998c0.681,3.723999 2.625,6.434998 5.787994,8.789001c4.95401,3.375 10.199005,6.261993 15.671021,8.712006c5.437988,2.744995 10.911987,5.47699 16.636993,7.57901c2.445007,1.151978 5.122986,1.975983 7.212006,3.732971c2.316986,1.948029 0.143982,4.891022 -2.52301,3.458008z" fill="#3f7f00" id="path2400"/>
   </g>
  </g>
 </g>
</svg>